<?xml version="1.0" encoding="utf-8"?>
<!-- Generator: Adobe Illustrator 22.0.1, SVG Export Plug-In . SVG Version: 6.00 Build 0)  -->
<svg version="1.1" id="Layer_4" xmlns="http://www.w3.org/2000/svg" xmlns:xlink="http://www.w3.org/1999/xlink" x="0px" y="0px"
	 viewBox="0 0 100 100" style="enable-background:new 0 0 100 100;" xml:space="preserve">
<style type="text/css">
	.st0{fill:#FFFFFF;}
</style>
<g>
	<polygon class="st0" points="75,66.3 75,13 72,13 72,84 18,84 18,87 75,87 	"/>
	<polygon class="st0" points="77,18 77,89 23,89 23,92 80,92 80,70.6 80,18 	"/>
	<path class="st0" d="M70,8H13v74h57V8z M37.4,70.6l-4.5-5.2l0.1-0.1l-6-6.9l5.2-4.5l6,6.9l15.3-13.3l4.5,5.2L37.4,70.6z M61,40H22
		v-4h39V40z M61,31H22v-4h39V31z M61,22H22v-4h39V22z"/>
</g>
</svg>
